# xmcd CD database file
#
# Track frame offsets:
#	150
#	13932
#	25445
#	37192
#	52067
#	68130
#	81850
#	97796
#	115040
#	123151
#	138324
#	153642
#	170178
#
# Disc length: 2508 seconds
#
# Revision: 1
# Processed by: cddbd v1.5.2PL0 Copyright (c) Steve Scherf et al.
# Submitted via: CDex 1.51
#
DISCID=b209ca0d
DTITLE=McMule - Whiskeytalk
DYEAR=2011
DGENRE=Country
TTITLE0=Ramblin' Life
TTITLE1=Parasite
TTITLE2=Rattle and Moan
TTITLE3=Chester Road
TTITLE4=Little Darlin'
TTITLE5=The Window
TTITLE6=Riley Simon
TTITLE7=Deep Dark Places
TTITLE8=The Banshee
TTITLE9=1940 Ford
TTITLE10=Waiting For The Sun
TTITLE11=Floating On The Rubble
TTITLE12=Waltz in D
EXTD=YEAR: 2011
EXTT0=
EXTT1=
EXTT2=
EXTT3=
EXTT4=
EXTT5=
EXTT6=
EXTT7=
EXTT8=
EXTT9=
EXTT10=
EXTT11=
EXTT12=
PLAYORDER=
